<svg width="250" height="99" viewBox="0 0 250 99" fill="none" xmlns="http://www.w3.org/2000/svg">
<path d="M37.9669 69.8757C36.0787 69.8757 34.7394 69.5031 33.949 68.7579C33.1585 68.0128 32.7633 66.9169 32.7633 65.4704C32.7633 58.194 34.0807 50.5888 36.7154 42.6549C39.3502 34.6772 43.0388 26.6775 47.7813 18.656C48.3961 17.6478 48.8791 17.0122 49.2304 16.7492C49.6256 16.4862 50.0867 16.3547 50.6137 16.3547C51.2284 16.3547 51.7773 16.5739 52.2604 17.0122C52.7434 17.4505 52.9849 18.0423 52.9849 18.7875C52.9849 19.182 52.5897 20.2559 51.7993 22.0092C51.0089 23.7188 49.9989 25.9324 48.7693 28.6501C47.5398 31.3678 46.2224 34.4142 44.8172 37.7894C43.456 41.1208 42.1606 44.6055 40.931 48.2437C39.7015 51.8819 38.7134 55.4982 37.9669 59.0926C38.9769 57.6022 40.1845 56.0023 41.5897 54.2928C43.0388 52.5833 44.5757 50.8738 46.2005 49.1643C47.8252 47.4547 49.4719 45.8986 51.1406 44.496C52.8532 43.0933 54.4999 41.9755 56.0807 41.1427C57.6616 40.3098 59.1107 39.8934 60.4281 39.8934C62.1406 39.8934 63.6336 40.6167 64.9071 42.0632C66.2245 43.4659 66.8832 45.5918 66.8832 48.441C66.8832 50.8519 66.2245 53.3285 64.9071 55.8708C63.5897 58.3693 61.6576 60.6925 59.1107 62.8404C56.6077 64.9444 53.5777 66.6539 50.0208 67.9689C46.464 69.2401 42.446 69.8757 37.9669 69.8757ZM38.2304 64.8787C41.8751 64.8787 45.1905 64.265 48.1765 63.0376C51.1626 61.8103 53.7095 60.2542 55.8173 58.3693C57.969 56.4407 59.6157 54.4462 60.7574 52.386C61.943 50.282 62.5358 48.3752 62.5358 46.6657C62.5358 45.4384 62.1187 44.8247 61.2843 44.8247C60.2744 44.8247 58.9789 45.3069 57.3981 46.2712C55.8173 47.2356 54.1047 48.5067 52.2604 50.0848C50.46 51.6628 48.6596 53.3723 46.8592 55.2133C45.0588 57.0105 43.3901 58.7638 41.8532 60.4734C40.3601 62.1829 39.1526 63.6513 38.2304 64.8787Z" fill="#003F8A"/>
<path d="M90.0688 39.7619C90.0688 41.1646 89.6297 42.5454 88.7514 43.9042C87.8732 45.2192 86.7095 46.4904 85.2604 47.7177C83.8113 48.9013 82.2085 50.019 80.452 51.071C78.6955 52.123 76.939 53.0435 75.1825 53.8325C73.426 54.6216 71.8232 55.2571 70.3741 55.7393C70.0228 57.4488 69.8472 58.9611 69.8472 60.2761C69.8472 61.109 70.0448 61.7007 70.44 62.0514C70.8352 62.402 71.45 62.5774 72.2843 62.5774C74.1286 62.5774 76.0827 62.2486 78.1466 61.5911C80.2105 60.9336 82.3183 60.0789 84.47 59.0268C86.6217 57.9748 88.6856 56.8571 90.6616 55.6736C92.6377 54.4901 94.4381 53.3723 96.0628 52.3203C97.7315 51.2683 99.1147 50.4135 100.213 49.756C101.31 49.0985 102.035 48.7698 102.386 48.7698C102.913 48.7698 103.308 48.9451 103.572 49.2958C103.879 49.6026 104.033 49.9752 104.033 50.4135C104.033 50.7642 103.484 51.4436 102.386 52.4518C101.332 53.46 99.9051 54.6435 98.1047 56.0023C96.3043 57.3173 94.2844 58.6762 92.0448 60.0789C89.8053 61.4815 87.478 62.7966 85.0628 64.0239C82.6915 65.2512 80.3861 66.2375 78.1466 66.9827C75.951 67.7278 73.9749 68.1004 72.2185 68.1004C69.935 68.1004 68.1566 67.2457 66.8831 65.5362C65.6097 63.8266 64.9729 61.1747 64.9729 57.5803C64.9729 55.1695 65.2803 52.7367 65.8951 50.282C66.5538 47.8273 67.432 45.4822 68.5298 43.2467C69.6715 40.9673 70.923 38.951 72.2843 37.1976C73.6895 35.4005 75.1606 33.9978 76.6975 32.9896C78.2344 31.9376 79.7275 31.4116 81.1766 31.4116C83.943 31.4116 86.1167 32.1787 87.6975 33.7129C89.2784 35.247 90.0688 37.2634 90.0688 39.7619ZM71.7574 50.6765C73.1187 49.8437 74.5238 48.967 75.9729 48.0465C77.4221 47.126 78.7614 46.1836 79.9909 45.2192C81.2205 44.2549 82.2085 43.2467 82.955 42.1947C83.7454 41.0988 84.1406 39.9811 84.1406 38.8414C84.1406 37.2196 83.2624 36.4086 81.5059 36.4086C80.4081 36.4086 79.2444 37.11 78.0149 38.5127C76.8292 39.8715 75.6875 41.6468 74.5897 43.8385C73.4919 46.0301 72.5478 48.3095 71.7574 50.6765Z" fill="#003F8A"/>
<path d="M104.823 64.8126C103.155 64.8126 101.771 64.0455 100.674 62.5113C99.6197 60.9333 99.0928 58.895 99.0928 56.3965C99.0928 54.0733 99.6636 51.772 100.805 49.4927C101.991 47.2133 103.55 45.0216 105.482 42.9176C107.414 40.8136 109.522 38.8849 111.805 37.1316C114.089 35.3344 116.372 33.7783 118.656 32.4633C120.983 31.1483 123.113 30.1182 125.045 29.373C126.977 28.6278 128.514 28.2552 129.656 28.2552C130.27 28.2552 130.775 28.3867 131.171 28.6497C131.566 28.8689 131.763 29.2853 131.763 29.899C131.763 30.2935 131.61 30.6661 131.302 31.0168C131.346 31.0168 131.39 31.0168 131.434 31.0168C132.4 31.0168 132.883 31.5866 132.883 32.7263C132.883 33.1208 132.73 33.9317 132.422 35.1591C132.115 36.3426 131.763 37.8329 131.368 39.6301C130.973 41.4273 130.622 43.4217 130.314 45.6134C130.007 47.7613 129.853 49.9529 129.853 52.1885C129.853 54.0733 130.578 55.0157 132.027 55.0157C133.652 55.0157 135.298 54.6432 136.967 53.898C138.636 53.1528 140.261 52.2542 141.841 51.2022C143.422 50.1064 144.871 49.0324 146.189 47.9804C147.506 46.8846 148.626 45.9641 149.548 45.2189C150.47 44.4737 151.129 44.1011 151.524 44.1011C151.875 44.1011 152.183 44.2107 152.446 44.4299C152.71 44.6491 152.841 44.9997 152.841 45.4819C152.841 45.9202 152.402 46.7092 151.524 47.8489C150.646 48.9886 149.482 50.2817 148.033 51.7282C146.584 53.1747 144.959 54.5774 143.159 55.9362C141.358 57.2951 139.514 58.4129 137.626 59.2895C135.738 60.1662 133.937 60.6045 132.225 60.6045C130.907 60.6045 129.7 60.21 128.602 59.421C127.548 58.5882 126.692 57.1855 126.033 55.213C125.418 53.2405 125.111 50.5228 125.111 47.0599V45.4162C122.959 48.9667 120.698 52.2104 118.326 55.1472C115.999 58.0841 113.672 60.4292 111.344 62.1826C109.061 63.9359 106.887 64.8126 104.823 64.8126ZM128.404 32.9893C128.185 33.077 127.877 33.2085 127.482 33.3838C125.462 34.3043 123.354 35.444 121.159 36.8028C119.007 38.1617 116.899 39.6739 114.835 41.3396C112.815 43.0053 110.993 44.7367 109.368 46.5339C107.743 48.3311 106.448 50.1502 105.482 51.9912C104.516 53.8322 104.033 55.6294 104.033 57.3828C104.033 57.9526 104.143 58.3909 104.362 58.6978C104.626 59.0046 105.065 59.158 105.68 59.158C106.558 59.158 107.7 58.6101 109.105 57.5143C110.51 56.3746 112.047 54.8842 113.716 53.0432C115.428 51.2022 117.141 49.1639 118.853 46.9284C120.566 44.6929 122.191 42.4355 123.728 40.1561C125.308 37.8767 126.67 35.7727 127.811 33.844C127.987 33.5372 128.185 33.2523 128.404 32.9893Z" fill="#003F8A"/>
<path d="M153.237 70.0072C151.085 70.0072 149.219 69.525 147.638 68.5607C146.101 67.5525 144.915 66.2594 144.081 64.6814C143.247 63.1034 142.829 61.4816 142.829 59.8159C142.829 56.3092 143.444 53.1093 144.674 50.2163C145.903 47.2794 147.44 44.6932 149.284 42.4577C151.173 40.1783 153.105 38.2497 155.081 36.6716C157.101 35.0936 158.243 34.6334 160.939 34.2389C164.434 34.2389 165.818 34.6334 166.635 35.3566C167.688 36.2877 167.953 36.058 167.953 37.4607C167.953 38.1182 167.513 38.8853 166.635 39.7619C165.757 40.5948 162.897 38.0962 161.536 39.2359C160.175 40.3756 158.726 41.6687 157.189 43.1152C155.652 44.5179 154.203 46.1178 152.841 47.915C151.48 49.6684 150.36 51.6409 149.482 53.8326C148.604 55.9804 148.165 58.3474 148.165 60.9336C148.165 63.5636 149.241 64.8787 151.392 64.8787C153.368 64.8787 155.388 64.5061 157.452 63.7609C159.56 63.0157 161.624 62.0514 163.644 60.8679C165.708 59.6405 167.684 58.3694 169.572 57.0543C171.46 55.7393 173.173 54.4901 174.71 53.3065C176.247 52.0792 177.542 51.0929 178.596 50.3478C179.65 49.6026 180.396 49.23 180.835 49.23C181.714 49.23 182.153 49.7122 182.153 50.6765C182.153 50.6885 179.452 50.7005 179.452 50.7126C179.444 51.06 179.329 51.4586 179.107 51.9086C178.855 52.4183 181.166 52.9939 180.638 53.6353C179.628 54.8627 178.267 56.1996 176.554 57.6461C174.841 59.0926 172.931 60.561 170.823 62.0514C168.716 63.4979 166.586 64.8348 164.434 66.0622C162.283 67.2457 160.219 68.21 158.243 68.9552C156.31 69.6565 154.642 70.0072 153.237 70.0072Z" fill="#003F8A"/>
<path d="M179.452 50.7126C179.444 51.06 179.329 51.4586 179.107 51.9086C178.335 54.6221 181.02 53.2032 180.506 55.5421C179.804 58.6981 179.452 61.2624 179.452 63.2349C179.452 65.3827 179.716 66.7197 180.243 67.2457C180.77 67.8155 181.516 68.1004 182.482 68.1004C183.492 68.1004 184.7 67.4648 186.105 66.1937C187.51 64.9225 189.025 63.2568 190.65 61.1966C192.318 59.0926 194.031 56.8132 195.788 54.3586C197.588 51.9039 199.388 49.493 201.189 47.126C202.989 44.7151 204.702 42.5673 206.327 40.6824C207.995 38.7537 209.532 37.3072 210.937 36.3429C210.103 38.8852 209.269 41.4934 208.434 44.1672C207.644 46.7972 206.985 49.2958 206.458 51.6628C205.931 54.0298 205.668 59.8943 205.668 61.56V73.8233C205.668 80.3638 207.841 86.0867 209.027 88.5394C210.213 90.992 213.901 90.992 213.901 90.992C213.901 90.992 216.602 90.992 216.602 87.7218C216.602 86.0395 211.678 83.634 210.74 77.0936C209.801 70.5531 211.398 58.979 211.398 58.1063C211.398 56.7913 211.64 55.2133 212.123 53.3723C212.65 51.5313 213.243 49.6026 213.901 47.5862C214.56 45.5699 215.131 43.6412 215.614 41.8002C216.141 39.9592 216.404 38.3812 216.404 37.0661C216.404 34.743 215.877 33.0773 214.824 32.0691C213.814 31.0171 212.474 30.4911 210.806 30.4911C209.796 30.4911 208.61 31.0609 207.249 32.2006C205.931 33.2964 204.504 34.7649 202.967 36.6059C201.43 38.4469 199.871 40.4852 198.291 42.7207C196.71 44.9562 195.151 47.2137 193.614 49.493C192.077 51.7724 190.628 53.8983 189.267 55.8708C187.905 57.8433 186.698 59.4652 185.644 60.7364C185.907 58.3693 186.412 55.6955 187.159 52.7148C187.905 49.7341 188.806 46.6219 189.859 43.3782C190.913 40.0907 192.033 36.8251 193.219 33.5814C194.404 30.3377 195.568 27.2474 196.71 24.3105C197.851 21.3737 198.883 18.7217 199.806 16.3547C200.772 13.9877 201.518 12.0809 202.045 10.6344C202.616 9.18788 202.901 8.33312 202.901 8.07012C202.901 7.32495 202.682 6.79894 202.243 6.49211C201.847 6.14144 201.364 5.9661 200.794 5.9661C199.959 5.9661 199.235 6.20719 198.62 6.68936C198.005 7.17153 197.412 8.02629 196.841 9.25363C195.305 12.6288 193.702 16.3547 192.033 20.4312C190.408 24.4639 188.849 28.5843 187.356 32.7924C185.863 36.9566 184.524 40.9893 183.338 44.8905C183.145 45.5255 179.632 50.0962 179.452 50.7126Z" fill="#003F8A"/>
<path fill-rule="evenodd" clip-rule="evenodd" d="M27.1566 8.44456C32.9881 6.48687 39.1364 6.35599 45.0345 7.86546C43.8967 8.1993 42.7668 8.7073 41.6898 9.42405C41.6128 9.47524 41.5367 9.52798 41.4612 9.58128L41.2366 9.74436C39.943 10.713 39.0672 11.8139 38.6429 12.3723C38.123 13.0564 37.6529 13.778 37.2435 14.4494L37.1732 14.5666C37.1721 14.5684 37.1703 14.5697 37.1693 14.5715C30.55 14.4041 25.0945 16.3328 25.4925 18.9504C25.6359 19.8925 26.4251 19.8607 28.6868 19.0783C30.0139 18.6207 32.4008 18.3849 35.0091 18.3537C30.957 25.6808 27.6831 33.0636 25.2249 40.5032C22.302 49.3048 20.7631 57.9766 20.763 66.4699C20.763 69.7179 21.6934 73.8329 25.0892 77.0344C28.6968 80.4353 33.2609 80.8752 35.9671 80.8752C41.385 80.8752 46.5696 80.1073 51.3861 78.386C51.4201 78.3738 51.4546 78.3614 51.4886 78.3489C54.1112 77.3792 56.5968 76.2014 58.9144 74.799C62.0375 77.694 66.0235 79.1007 70.2181 79.1008C70.6253 79.1008 71.0316 79.0891 71.4368 79.0676C71.6404 89.5779 65.1503 95.5539 51.4915 97.633C33.9087 100.309 17.341 94.5934 9.80109 83.2971C3.21149 73.6087 -0.607942 58.9413 0.0794116 46.6555C1.10507 29.0602 12.2319 13.5207 27.1566 8.44456ZM170.135 74.1203C170.405 74.4797 170.706 74.8364 171.042 75.1838C173.886 78.1628 177.508 79.1007 180.482 79.1008C183.807 79.1008 186.536 77.7902 188.517 76.4338C188.625 83.4169 187.197 88.2769 184.35 90.7717C179.149 95.1917 165.331 93.969 159.931 88.5764C158.363 86.9897 157.286 84.5863 156.411 80.343C157.534 80.0693 158.62 79.7303 159.655 79.3547C159.693 79.3407 159.732 79.3263 159.771 79.3117C162.255 78.3749 164.751 77.2006 167.253 75.8244C167.298 75.7996 167.344 75.7738 167.389 75.7483C168.31 75.2231 169.225 74.6795 170.135 74.1203ZM219.801 8.16819C225.063 2.53684 236.575 1.04046 242.211 5.23069C248.608 9.89348 250.805 21.6291 249.678 45.5139C248.811 62.5591 247.692 75.6064 245.433 82.258C243.388 88.1396 240.195 90.8401 233.934 92.0832C230.242 92.7528 226.979 92.7628 224.203 92.1448C224.463 91.0613 224.602 89.916 224.602 88.7219C224.602 86.0915 223.655 84.1142 223.077 83.0998C222.485 82.0591 221.821 81.2488 221.459 80.8205C221.084 80.3761 220.647 79.8987 220.419 79.6457C220.133 79.329 219.921 79.0892 219.726 78.8537C219.05 78.0367 218.753 77.474 218.638 76.674C218.337 74.5769 218.41 71.0038 218.69 67.2102C218.82 65.4405 218.98 63.817 219.111 62.5471C219.171 61.9647 219.24 61.3174 219.281 60.9123C219.294 60.7813 219.398 59.8556 219.398 59.1067C219.398 58.9392 219.441 58.2826 219.777 56.9856C220.257 55.3158 220.799 53.5515 221.407 51.6916C222.12 49.5087 222.747 47.389 223.285 45.3371C223.932 43.0302 224.404 40.5525 224.404 38.0657C224.404 34.6296 223.682 29.7323 219.887 25.9924C217.476 23.5495 214.553 22.2118 211.567 21.717C215.113 14.8552 217.9 10.2515 219.801 8.16819ZM119.545 67.5364C119.818 67.7871 120.103 68.0311 120.402 68.2668C120.521 68.3609 120.642 68.4527 120.765 68.5412C123.515 70.5181 126.755 71.6046 130.224 71.6047C131.433 71.6047 132.617 71.4934 133.77 71.2932C133.959 71.6097 134.156 71.9193 134.361 72.2229C127.962 77.6113 119.701 80.8596 110.68 80.8596C102.366 80.8596 94.6982 78.0998 88.5374 73.4494C89.8064 72.7873 91.0564 72.1034 92.2855 71.3948C94.9249 74.0471 98.5115 75.8125 102.823 75.8127C107.776 75.8127 112.017 73.7187 115.361 71.1682L115.362 71.1692C115.374 71.1602 115.385 71.1499 115.397 71.1408C115.409 71.1317 115.422 71.1237 115.434 71.1145L115.433 71.1135C116.853 70.0386 118.222 68.8403 119.545 67.5364ZM203.668 62.5598V74.3674H203.667V62.5598H203.668ZM155.531 70.2024L155.272 70.2815C155.357 70.2545 155.444 70.2298 155.531 70.2014L156.242 69.9553C156.001 70.043 155.764 70.1257 155.531 70.2024ZM67.8626 68.7395C68.285 68.8816 68.7324 68.98 69.2044 69.0383V69.0393C69.1316 69.0303 69.0592 69.0219 68.9876 69.011C68.5949 68.9509 68.2198 68.8607 67.8626 68.7405V68.7395ZM160.051 68.301H160.05H160.051ZM36.2308 65.8791V65.8772L36.9095 65.8713C36.6845 65.8761 36.4583 65.8791 36.2308 65.8791ZM39.6302 65.6887C39.3892 65.7163 39.1468 65.7424 38.9027 65.7639C39.1468 65.7424 39.3892 65.7163 39.6302 65.6887ZM39.9212 65.6545C39.8708 65.6608 39.8204 65.667 39.7698 65.6731C39.8195 65.6671 39.8688 65.6588 39.9183 65.6526C39.9193 65.653 39.9201 65.6541 39.9212 65.6545ZM155.452 64.761C155.379 64.7873 155.306 64.8116 155.233 64.8371C155.305 64.8116 155.379 64.7873 155.451 64.761C155.715 64.6678 155.978 64.571 156.241 64.4709C155.978 64.5709 155.716 64.6678 155.452 64.761ZM187.267 56.8703C187.028 57.2161 186.794 57.551 186.565 57.8752C186.794 57.5511 187.027 57.216 187.266 56.8703H187.267ZM97.0931 57.3967L97.0989 57.8596C97.0948 57.7071 97.0921 57.5528 97.0921 57.3967C97.0921 57.3199 97.0957 57.2431 97.097 57.1662C97.0957 57.243 97.0931 57.3199 97.0931 57.3967ZM141.02 57.5334C141.042 57.3499 141.064 57.1672 141.09 56.9856C141.083 56.9912 141.075 56.9966 141.068 57.0022C141.076 56.9963 141.083 56.9905 141.091 56.9846C141.065 57.1666 141.042 57.3495 141.02 57.5334ZM178.545 56.3332L178.506 56.5422C178.525 56.457 178.538 56.3766 178.548 56.301C178.547 56.3116 178.547 56.3225 178.545 56.3332ZM203.977 56.3957V56.3948C203.997 56.1505 204.019 55.9087 204.041 55.6711C204.056 55.5174 204.072 55.3656 204.088 55.216C204.048 55.5972 204.011 55.9932 203.977 56.3957ZM118.084 53.8869C117.855 54.1933 117.622 54.4954 117.39 54.7951L118.084 53.8869ZM96.5501 51.7688C96.8236 51.6002 97.085 51.4389 97.3353 51.2864L98.2122 50.7561C97.7163 51.0531 97.1626 51.3912 96.5501 51.7688ZM178.301 50.3537C178.298 50.3549 178.294 50.3554 178.291 50.3567C178.294 50.3556 178.297 50.3548 178.3 50.3537C178.327 50.3151 178.355 50.2761 178.382 50.2366C178.355 50.276 178.328 50.3152 178.301 50.3537ZM101.45 46.345C101.348 46.478 101.249 46.6116 101.151 46.7453C101.249 46.6116 101.348 46.478 101.45 46.345ZM49.1409 45.4963C48.9673 45.6422 48.7945 45.7904 48.6214 45.9397C48.7943 45.7906 48.9666 45.6421 49.14 45.4963L49.7796 44.9836C49.5677 45.15 49.3549 45.3211 49.1409 45.4963ZM103.124 44.3127C102.694 44.7958 102.283 45.2843 101.892 45.7766C102.181 45.4126 102.481 45.0505 102.791 44.6916L103.124 44.3127ZM51.0394 44.0383C51.2146 43.913 51.3898 43.7918 51.5638 43.6731L51.0394 44.0383ZM203.713 42.4016C203.302 42.8892 202.885 43.3938 202.462 43.9143C202.673 43.6542 202.883 43.3976 203.091 43.1457L203.713 42.4016ZM81.2786 42.7053C81.1792 42.8687 81.0724 43.0323 80.9554 43.1946H80.9544C81.0038 43.1261 81.0517 43.0572 81.098 42.9885C81.1614 42.8945 81.221 42.7997 81.2786 42.7053ZM81.473 42.3684C81.4224 42.4628 81.368 42.5565 81.3118 42.6506C81.3681 42.5565 81.4224 42.4628 81.473 42.3684ZM122.594 39.8928C122.313 40.3079 122.024 40.7291 121.728 41.1565L121.147 42.01C121.342 41.7259 121.535 41.4413 121.727 41.1565C122.023 40.7289 122.313 40.308 122.594 39.8928ZM75.5726 40.0422C75.2789 40.4079 74.9877 40.7994 74.6995 41.217C74.5555 41.4259 74.4126 41.6416 74.2698 41.8635H74.2689C74.5545 41.4194 74.843 41.0016 75.1341 40.6096L75.5726 40.0422ZM82.1302 39.5461C82.1373 39.6413 82.1409 39.7396 82.1409 39.841C82.1409 40.0546 82.1268 40.2676 82.0989 40.4797L82.1214 40.2678C82.1338 40.126 82.14 39.9835 82.14 39.841L82.1302 39.5461ZM76.2454 39.258L76.015 39.5129C76.0918 39.4253 76.1682 39.3402 76.2445 39.258L76.473 39.0198C76.3973 39.0964 76.3216 39.176 76.2454 39.258ZM125.263 35.7532C125.2 35.8564 125.137 35.9605 125.073 36.0647C125.137 35.9604 125.2 35.8564 125.263 35.7532ZM156.433 35.7659C156.542 35.7314 156.653 35.6988 156.767 35.6672L156.433 35.7659ZM136.27 17.6399C140.176 21.4226 143.245 26.0635 145.175 31.258C143.623 32.6305 142.138 34.1349 140.715 35.7532C140.813 35.0924 140.883 34.3963 140.883 33.7258C140.883 32.3123 140.662 29.962 139.303 27.6155C138.721 25.5408 137.493 23.2815 135.117 21.5949C135.655 20.2883 136.024 18.9424 136.27 17.6399ZM156.833 35.6496C156.909 35.6293 156.985 35.6103 157.063 35.591C156.985 35.6104 156.909 35.6293 156.833 35.6496ZM160.805 35.2873C160.892 35.2923 160.977 35.2972 161.061 35.303C160.977 35.2973 160.892 35.2923 160.805 35.2873ZM126.405 33.9895L126.243 34.1907C126.295 34.1224 126.348 34.055 126.403 33.9895H126.405ZM213.195 33.4778L213.221 33.5139C213.196 33.4815 213.171 33.4496 213.145 33.4182C213.161 33.4382 213.179 33.4574 213.195 33.4778ZM212.993 33.2434C213.014 33.2661 213.035 33.2895 213.055 33.3127C213.035 33.2895 213.014 33.2661 212.993 33.2434ZM169.564 0.409403C175.025 -0.867184 182.219 0.939265 186.575 4.47093C186.259 5.03203 185.994 5.56269 185.774 6.03636L185.741 6.1096C185.16 7.38465 184.572 8.70376 183.977 10.0666C181.58 7.5647 180.195 6.87107 177.467 6.36253C171.238 5.26513 170.074 7.54789 175.733 9.57054C177.819 10.3019 180.211 11.9663 182.231 14.1448C181.751 15.284 181.266 16.4497 180.778 17.6428L180.757 17.6946C179.083 21.8506 177.478 26.0916 175.943 30.4172C175.595 31.386 175.256 32.349 174.924 33.3059C174.531 32.4387 174.008 31.5854 173.329 30.7815C172.8 30.1543 172.296 29.7013 171.976 29.4299C171.679 29.1788 171.402 28.9699 171.334 28.9182C171.267 28.8672 171.231 28.8396 171.215 28.8274C167.286 25.3845 162.275 25.2385 158.939 25.2385C158.455 25.2385 157.971 25.2739 157.492 25.344C157.399 25.3576 157.305 25.3716 157.21 25.386C157.649 20.7745 158.122 17.191 158.585 15.4651C161.067 6.13621 164.348 1.70577 169.564 0.409403ZM212.824 33.0686C212.838 33.0819 212.85 33.097 212.864 33.1106C212.85 33.0972 212.837 33.0828 212.824 33.0696C212.76 33.0037 212.696 32.939 212.63 32.8772C212.696 32.9389 212.76 33.0028 212.824 33.0686ZM110.68 7.27952C117.548 7.27952 123.975 9.16326 129.477 12.4397C129.476 12.8624 129.467 13.2925 129.444 13.7258C129.326 15.9265 128.931 17.8032 128.218 19.2668C128.158 19.2644 128.099 19.2616 128.039 19.26L127.656 19.2551C124.66 19.2552 121.748 20.1556 119.447 21.0432C116.951 22.0057 114.372 23.2673 111.736 24.7571L111.665 24.7971C110.495 25.4711 109.336 26.192 108.187 26.9573C104.09 28.0752 99.7504 29.5166 95.889 31.7942C95.068 30.2714 94.0014 28.8367 92.6614 27.5364C89.2424 24.2184 85.0303 22.7764 80.8939 22.4739C87.5807 13.2668 98.4305 7.27955 110.68 7.27952ZM44.0013 22.7551C42.3419 25.7305 40.8274 28.7029 39.4583 31.6721L39.4573 31.6711C39.9184 30.6712 40.3959 29.6708 40.89 28.6701C41.3839 27.6695 41.8943 26.6685 42.4212 25.6672C42.6846 25.1666 42.9523 24.666 43.2239 24.1653C43.479 23.6951 43.7389 23.2254 44.0013 22.7551ZM60.5013 16.2893C61.4448 17.1359 62.3602 18.0357 63.2425 18.9885C65.4373 21.3571 66.4896 24.4178 66.512 27.677C65.1665 28.8435 63.9403 30.1393 62.8206 31.5178C61.5842 31.1542 60.2714 30.939 58.8909 30.8996L58.428 30.8938C58.0014 30.8938 57.5796 30.9089 57.1644 30.9407C57.8221 29.4955 58.3921 28.2513 58.8753 27.2063C58.8886 27.1775 58.9023 27.1483 58.9153 27.1194C59.352 26.1507 59.7571 25.1992 60.0726 24.342C60.2287 23.9177 60.4114 23.3869 60.5667 22.8098C60.6748 22.4083 60.9847 21.2373 60.9847 19.7873C60.9847 18.6456 60.833 17.461 60.5013 16.2893ZM44.1859 22.427C44.4155 22.018 44.6471 21.6085 44.8821 21.1994C44.6471 21.6086 44.4154 22.018 44.1859 22.427ZM45.7493 19.7092C45.4867 20.1538 45.2281 20.5987 44.972 21.0432C45.228 20.5989 45.4858 20.1537 45.7484 19.7092H45.7493ZM237.541 9.50413C234.743 7.88721 226.659 7.21586 225.809 8.47386C224.864 9.90035 226.113 11.0916 228.638 11.2199C232.208 11.4016 236.882 13.8941 238.84 16.5959C240.55 19.0251 243.161 19.1581 243.276 16.9084C243.368 15.0913 240.253 11.1166 237.541 9.50413Z" fill="#CCF9FF"/>
</svg>
